<?xml version="1.0" encoding="UTF-8" standalone="no"?>
<svg
   width="64"
   height="64"
   version="1.1"
   id="svg5"
   sodipodi:docname="file-manager.svg"
   inkscape:version="1.3.2 (091e20ef0f, 2023-11-25)"
   xmlns:inkscape="http://www.inkscape.org/namespaces/inkscape"
   xmlns:sodipodi="http://sodipodi.sourceforge.net/DTD/sodipodi-0.dtd"
   xmlns="http://www.w3.org/2000/svg"
   xmlns:svg="http://www.w3.org/2000/svg">
  <sodipodi:namedview
     id="namedview5"
     pagecolor="#ffffff"
     bordercolor="#000000"
     borderopacity="0.25"
     inkscape:showpageshadow="2"
     inkscape:pageopacity="0.0"
     inkscape:pagecheckerboard="0"
     inkscape:deskcolor="#d1d1d1"
     inkscape:zoom="13.15625"
     inkscape:cx="32"
     inkscape:cy="31.961995"
     inkscape:window-width="1422"
     inkscape:window-height="1541"
     inkscape:window-x="1445"
     inkscape:window-y="66"
     inkscape:window-maximized="1"
     inkscape:current-layer="svg5" />
  <defs
     id="defs2">
    <style
       id="current-color-scheme"
       type="text/css">.ColorScheme-Text {
        color:#333333;
      }
      .ColorScheme-Highlight {
        color:#eba0ac;
      }</style>
    <linearGradient
       id="a"
       x1="42"
       x2="44"
       y1="51"
       y2="55"
       gradientTransform="matrix(.96432 0 0 .96425 1.1439 1.1442)"
       gradientUnits="userSpaceOnUse">
      <stop
         offset="0"
         id="stop1" />
      <stop
         stop-opacity="0"
         offset="1"
         id="stop2" />
    </linearGradient>
  </defs>
  <circle
     class="ColorScheme-Highlight"
     cx="32"
     cy="32"
     r="27"
     fill="currentColor"
     stroke-width="3.6447"
     id="circle2"
     style="fill:#eba0ac;fill-opacity:1.0" />
  <path
     d="m56.412 43.467-26.705 15.416a27 26.998 0 0 0 2.2962 0.11662 27 26.998 0 0 0 24.409-15.533z"
     fill="url(#a)"
     opacity=".1"
     stroke-width="3.6446"
     style="paint-order:stroke fill markers"
     id="path2" />
  <path
     d="m32 5a27 26.998 0 0 0-24.39 15.431h18.413l1.159-1.9316c0.54671-0.91476 1.6146-1.9279 2.8903-1.9279h24.084a27 26.998 0 0 0-22.156-11.571z"
     opacity=".2"
     stroke-width="3.6446"
     id="path3" />
  <path
     d="m16.736 14.643a23.144 23.142 0 0 0-4.7017 5.7874h13.988l1.159-1.9316c0.54671-0.91476 1.6146-1.9279 2.8903-1.9279h19.113a23.144 23.142 0 0 0-1.9062-1.9279z"
     fill="#313244"
     stroke-width="3.6446"
     style="paint-order:stroke fill markers;fill:#313244;fill-opacity:1.0"
     id="path4" />
  <path
     d="m32.004 5a27 26.998 0 0 0-17.812 6.7495h35.631a27 26.998 0 0 0-17.823-6.7495z"
     opacity=".15"
     stroke-width="3.6446"
     style="paint-order:stroke fill markers"
     id="path5" />
  <rect
     x="34.894"
     y="18.499"
     width="14.466"
     height="1.9279"
     ry=".96578"
     opacity=".25"
     stroke-width="3.6446"
     style="paint-order:stroke markers fill"
     id="rect5" />
</svg>
