<?xml version="1.0" encoding="UTF-8" standalone="no"?>
<svg
   width="22"
   height="22"
   enable-background="new"
   version="1.1"
   id="svg29"
   sodipodi:docname="audio.svg"
   inkscape:version="1.3.2 (091e20ef0f, 2023-11-25)"
   xmlns:inkscape="http://www.inkscape.org/namespaces/inkscape"
   xmlns:sodipodi="http://sodipodi.sourceforge.net/DTD/sodipodi-0.dtd"
   xmlns="http://www.w3.org/2000/svg"
   xmlns:svg="http://www.w3.org/2000/svg">
  <sodipodi:namedview
     id="namedview29"
     pagecolor="#ffffff"
     bordercolor="#000000"
     borderopacity="0.5"
     inkscape:showpageshadow="2"
     inkscape:pageopacity="0.0"
     inkscape:pagecheckerboard="0"
     inkscape:deskcolor="#d1d1d1"
     inkscape:zoom="6.9962959"
     inkscape:cx="61.961359"
     inkscape:cy="-8.4330338"
     inkscape:window-width="2854"
     inkscape:window-height="1546"
     inkscape:window-x="13"
     inkscape:window-y="61"
     inkscape:window-maximized="1"
     inkscape:current-layer="svg29" />
  <defs
     id="defs1">
    <style
       id="current-color-scheme"
       type="text/css">.ColorScheme-Muted { color:#FF5555; } .ColorScheme-Text { color:#BD93F9; } .ColorScheme-Highlight { color:#5294e2; } .ColorScheme-ButtonBackground { color:#363636; }</style>
  </defs>
  <g
     id="22-22-audio-volume-high"
     transform="translate(0,29)">
    <g
       transform="translate(-.5 -6.999)"
       class="ColorScheme-Text"
       fill="#BD93F9"
       id="g4">
      <path
         d="m4.2778-14 4.4444-3c0.84454-0.57006 1.7778 0.892 1.7778 2v8c0 1.108-0.93324 2.5701-1.7778 2l-4.4444-3c-0.84454-0.57006-1.7778-0.892-1.7778-2v-2c0-1.108 0.93324-1.4299 1.7778-2z"
         id="path1" />
      <path
         d="m13.326-15.141-1.6582 1.0352c-0.0048 0.01377-0.01302 0.02515-0.01758 0.03906a6 6 0 0 1 0.84961 3.0664 6 6 0 0 1-0.84961 3.0645c0.0047 0.0145 0.01262 0.026669 0.01758 0.041016l1.6602 1.0371a8 8 0 0 0 1.1719-4.1426 8 8 0 0 0-1.1738-4.1406z"
         id="path2" />
      <path
         d="m15.869-16.73-1.6953 1.0605a9 9 0 0 1 1.3262 4.6699 9 9 0 0 1-1.3281 4.6699l1.6914 1.0566a11 11 0 0 0 1.6367-5.7266 11 11 0 0 0-1.6309-5.7305z"
         id="path3" />
      <path
         d="m 18.669682,-18.755443 -1.6953,1.447645 a 9,12.285526 0 0 1 1.3262,6.374686 9,12.285526 0 0 1 -1.3281,6.3746871 l 1.6914,1.4423207 a 11,15.015642 0 0 0 1.6367,-7.8171448 11,15.015642 0 0 0 -1.6309,-7.822467 z"
         id="path3-5"
         style="stroke-width:1.16836" />
    </g>
    <rect
       y="-29"
       width="22"
       height="22"
       ry="0"
       fill="none"
       id="rect4" />
  </g>
  <g
     id="22-22-audio-volume-medium"
     transform="translate(23,29)">
    <g
       transform="translate(-.5 -6.999)"
       class="ColorScheme-Text"
       fill="#BD93F9"
       id="g7">
      <path
         d="m4.2778-14 4.4444-3c0.84454-0.57006 1.7778 0.892 1.7778 2v8c0 1.108-0.93324 2.5701-1.7778 2l-4.4444-3c-0.84454-0.57006-1.7778-0.892-1.7778-2v-2c0-1.108 0.93324-1.4299 1.7778-2z"
         id="path5" />
      <path
         d="m13.326-15.141-1.6582 1.0352c-0.0048 0.01377-0.01302 0.02515-0.01758 0.03906a6 6 0 0 1 0.84961 3.0664 6 6 0 0 1-0.84961 3.0645c0.0047 0.0145 0.01262 0.026669 0.01758 0.041016l1.6602 1.0371a8 8 0 0 0 1.1719-4.1426 8 8 0 0 0-1.1738-4.1406z"
         id="path6" />
      <path
         d="m15.869-16.73-1.6953 1.0605a9 9 0 0 1 1.3262 4.6699 9 9 0 0 1-1.3281 4.6699l1.6914 1.0566a11 11 0 0 0 1.6367-5.7266 11 11 0 0 0-1.6309-5.7305z"
         id="path7" />
    </g>
    <rect
       y="-29"
       width="22"
       height="22"
       ry="0"
       fill="none"
       id="rect7" />
  </g>
  <g
     id="22-22-audio-volume-low"
     transform="translate(46,29)">
    <g
       transform="translate(-.5 -6.999)"
       class="ColorScheme-Text"
       fill="#BD93F9"
       id="g9">
      <path
         d="m4.2778-14 4.4444-3c0.84454-0.57006 1.7778 0.892 1.7778 2v8c0 1.108-0.93324 2.5701-1.7778 2l-4.4444-3c-0.84454-0.57006-1.7778-0.892-1.7778-2v-2c0-1.108 0.93324-1.4299 1.7778-2z"
         id="path8" />
      <path
         d="m13.326-15.141-1.6582 1.0352c-0.0048 0.01377-0.01302 0.02515-0.01758 0.03906a6 6 0 0 1 0.84961 3.0664 6 6 0 0 1-0.84961 3.0645c0.0047 0.0145 0.01262 0.026669 0.01758 0.041016l1.6602 1.0371a8 8 0 0 0 1.1719-4.1426 8 8 0 0 0-1.1738-4.1406z"
         id="path9" />
    </g>
    <rect
       y="-29"
       width="22"
       height="22"
       ry="0"
       fill="none"
       id="rect9" />
  </g>
  <g
     id="22-22-audio-volume-muted"
     transform="translate(-24 28.999)">
    <g
       transform="translate(-.5 -6.999)"
       class="ColorScheme-Muted"
       fill="#FF5555"
       id="g11">
      <path
         d="m4.2778-14 4.4444-3c0.84454-0.57006 1.7778 0.892 1.7778 2v8c0 1.108-0.93324 2.5701-1.7778 2l-4.4444-3c-0.84454-0.57006-1.7778-0.892-1.7778-2v-2c0-1.108 0.93324-1.4299 1.7778-2z"
         id="path10" />
      <path
         d="m13.326-15.141-1.6582 1.0352c-0.0048 0.01377-0.01302 0.02515-0.01758 0.03906a6 6 0 0 1 0.84961 3.0664 6 6 0 0 1-0.84961 3.0645c0.0047 0.0145 0.01262 0.026669 0.01758 0.041016l1.6602 1.0371a8 8 0 0 0 1.1719-4.1426 8 8 0 0 0-1.1738-4.1406z"
         opacity="0.5"
         id="path11" />
    </g>
    <rect
       y="-29"
       width="22"
       height="22"
       ry="0"
       fill="none"
       opacity="1"
       id="rect11" />
  </g>
  <g
     id="16-16-audio-volume-muted">
    <rect
       x="-23"
       y="-22"
       width="16"
       height="16"
       ry="0"
       fill="none"
       id="rect12" />
    <path
       d="m-20.222-17 4.4444-3c0.84454-0.57006 1.7778 0.892 1.7778 2v8c0 1.108-0.93324 2.5701-1.7778 2l-4.4444-3c-0.84454-0.57006-1.7778-0.892-1.7778-2v-2c0-1.108 0.93324-1.4299 1.7778-2z"
       class="ColorScheme-Text"
       fill="#FF5555"
       id="path12" />
    <path
       d="m -11.170949,-17.977505 -1.6582,1.0352 c -0.0048,0.01377 -0.01302,0.02515 -0.01758,0.03906 a 6,6 0 0 1 0.84961,3.0664 6,6 0 0 1 -0.84961,3.0645 c 0.0047,0.0145 0.01262,0.02667 0.01758,0.04102 l 1.6602,1.0371007 a 8,8 0 0 0 1.1718997,-4.1426007 8,8 0 0 0 -1.1737997,-4.1406 z"
       class="ColorScheme-Text"
       fill="#ff5555"
       opacity="0.5"
       id="path13" />
  </g>
  <g
     id="16-16-audio-volume-high"
     transform="translate(24)">
    <rect
       x="-23"
       y="-22"
       width="16"
       height="16"
       ry="0"
       fill="none"
       id="rect13" />
    <path
       d="m-20.222-17 4.4444-3c0.84454-0.57006 1.7778 0.892 1.7778 2v8c0 1.108-0.93324 2.5701-1.7778 2l-4.4444-3c-0.84454-0.57006-1.7778-0.892-1.7778-2v-2c0-1.108 0.93324-1.4299 1.7778-2z"
       class="ColorScheme-Text"
       fill="#BD93F9"
       id="path14" />
    <path
       d="m-11.174-18.141-1.6582 1.0352c-0.0048 0.01377-0.01302 0.02515-0.01758 0.03906a6 6 0 0 1 0.84961 3.0664 6 6 0 0 1-0.84961 3.0645c0.0047 0.0145 0.01262 0.02667 0.01758 0.04102l1.6602 1.0371a8 8 0 0 0 1.1719-4.1426 8 8 0 0 0-1.1738-4.1406z"
       class="ColorScheme-Text"
       fill="#BD93F9"
       id="path15" />
    <path
       d="m-8.631-19.73-1.6953 1.0605a9 9 0 0 1 1.3262 4.6699 9 9 0 0 1-1.3281 4.6699l1.6914 1.0566a11 11 0 0 0 1.6367-5.7266 11 11 0 0 0-1.6309-5.7305z"
       class="ColorScheme-Text"
       fill="#BD93F9"
       id="path16" />
  </g>
  <g
     id="16-16-audio-volume-medium"
     transform="translate(48)">
    <rect
       x="-23"
       y="-22"
       width="16"
       height="16"
       ry="0"
       fill="none"
       id="rect16" />
    <path
       d="m-20.222-17 4.4444-3c0.84454-0.57006 1.7778 0.892 1.7778 2v8c0 1.108-0.93324 2.5701-1.7778 2l-4.4444-3c-0.84454-0.57006-1.7778-0.892-1.7778-2v-2c0-1.108 0.93324-1.4299 1.7778-2z"
       class="ColorScheme-Text"
       fill="#BD93F9"
       id="path17" />
    <path
       d="m-11.174-18.141-1.6582 1.0352c-0.0048 0.01377-0.01302 0.02515-0.01758 0.03906a6 6 0 0 1 0.84961 3.0664 6 6 0 0 1-0.84961 3.0645c0.0047 0.0145 0.01262 0.02667 0.01758 0.04102l1.6602 1.0371a8 8 0 0 0 1.1719-4.1426 8 8 0 0 0-1.1738-4.1406z"
       class="ColorScheme-Text"
       fill="#BD93F9"
       id="path18" />
  </g>
  <g
     id="16-16-audio-volume-low"
     transform="translate(70)">
    <rect
       x="-23"
       y="-22"
       width="16"
       height="16"
       ry="0"
       fill="none"
       id="rect18" />
    <path
       d="m-20.222-17 4.4444-3c0.84454-0.57006 1.7778 0.892 1.7778 2v8c0 1.108-0.93324 2.5701-1.7778 2l-4.4444-3c-0.84454-0.57006-1.7778-0.892-1.7778-2v-2c0-1.108 0.93324-1.4299 1.7778-2z"
       class="ColorScheme-Text"
       fill="#BD93F9"
       id="path19" />
  </g>
  <g
     id="audio-volume-high"
     transform="translate(-7)">
    <rect
       x="9"
       y="30"
       width="32"
       height="32"
       ry="0"
       fill="none"
       id="rect19" />
    <path
       d="m14.667 41.5 6.6666-4.5c1.2668-0.85509 2.6667 1.338 2.6667 3v12c0 1.662-1.3999 3.8552-2.6667 3l-6.6666-4.5c-1.2668-0.85509-2.6667-1.338-2.6667-3v-3c0-1.662 1.3999-2.1448 2.6667-3z"
       class="ColorScheme-Text"
       fill="#BD93F9"
       id="path20" />
    <path
       d="m27.266 39.516-1.6914 1.0703a11 11 0 0 1 1.4258 5.4141 11 11 0 0 1-1.4258 5.4141l1.6934 1.0703a13 13 0 0 0 1.7324-6.4844 13 13 0 0 0-1.7344-6.4844z"
       class="ColorScheme-Text"
       fill="#BD93F9"
       id="path21" />
    <path
       d="m30.65 37.379-1.6914 1.0684a15 15 0 0 1 2.041 7.5527 15 15 0 0 1-2.041 7.5527l1.6914 1.0684a17 17 0 0 0 2.3496-8.6211 17 17 0 0 0-2.3496-8.6211z"
       class="ColorScheme-Text"
       fill="#BD93F9"
       id="path22" />
    <path
       d="m34.033 35.242-1.6914 1.0684a19 19 0 0 1 2.6582 9.6895 19 19 0 0 1-2.6582 9.6895l1.6934 1.0684a21 21 0 0 0 2.9648-10.758 21 21 0 0 0-2.9668-10.758z"
       class="ColorScheme-Text"
       fill="#BD93F9"
       id="path23" />
  </g>
  <g
     id="audio-volume-medium"
     transform="translate(31)">
    <rect
       x="9"
       y="30"
       width="32"
       height="32"
       ry="0"
       fill="none"
       id="rect23" />
    <path
       d="m14.667 41.5 6.6666-4.5c1.2668-0.85509 2.6667 1.338 2.6667 3v12c0 1.662-1.3999 3.8552-2.6667 3l-6.6666-4.5c-1.2668-0.85509-2.6667-1.338-2.6667-3v-3c0-1.662 1.3999-2.1448 2.6667-3z"
       class="ColorScheme-Text"
       fill="#BD93F9"
       id="path24" />
    <path
       d="m27.266 39.516-1.6914 1.0703a11 11 0 0 1 1.4258 5.4141 11 11 0 0 1-1.4258 5.4141l1.6934 1.0703a13 13 0 0 0 1.7324-6.4844 13 13 0 0 0-1.7344-6.4844z"
       class="ColorScheme-Text"
       fill="#BD93F9"
       id="path25" />
    <path
       d="m30.65 37.379-1.6914 1.0684a15 15 0 0 1 2.041 7.5527 15 15 0 0 1-2.041 7.5527l1.6914 1.0684a17 17 0 0 0 2.3496-8.6211 17 17 0 0 0-2.3496-8.6211z"
       class="ColorScheme-Text"
       fill="#BD93F9"
       id="path26" />
  </g>
  <g
     id="audio-volume-low"
     transform="translate(66)">
    <rect
       x="9"
       y="30"
       width="32"
       height="32"
       ry="0"
       fill="none"
       id="rect26" />
    <path
       d="m14.667 41.5 6.6666-4.5c1.2668-0.85509 2.6667 1.338 2.6667 3v12c0 1.662-1.3999 3.8552-2.6667 3l-6.6666-4.5c-1.2668-0.85509-2.6667-1.338-2.6667-3v-3c0-1.662 1.3999-2.1448 2.6667-3z"
       class="ColorScheme-Text"
       fill="#BD93F9"
       id="path27" />
    <path
       d="m27.266 39.516-1.6914 1.0703a11 11 0 0 1 1.4258 5.4141 11 11 0 0 1-1.4258 5.4141l1.6934 1.0703a13 13 0 0 0 1.7324-6.4844 13 13 0 0 0-1.7344-6.4844z"
       class="ColorScheme-Text"
       fill="#BD93F9"
       id="path28" />
  </g>
  <g
     id="audio-volume-muted"
     transform="translate(-44)">
    <rect
       x="9"
       y="30"
       width="32"
       height="32"
       ry="0"
       fill="none"
       id="rect28" />
    <path
       d="m -10.155164,40.102424 -1.6914,1.0703 a 11,11 0 0 1 1.4258,5.4141 11,11 0 0 1 -1.4258,5.4141 l 1.6934,1.0703 a 13,13 0 0 0 1.7323998,-6.4844 13,13 0 0 0 -1.7343998,-6.4844 z"
       class="ColorScheme-Text"
       fill="#FF5555"
       id="path21-6"
       opacity="0.5"
       style="color:#FF5555"
       transform="translate(37)" />
    <path
       d="m14.667 41.5 6.6666-4.5c1.2668-0.85509 2.6667 1.338 2.6667 3v12c0 1.662-1.3999 3.8552-2.6667 3l-6.6666-4.5c-1.2668-0.85509-2.6667-1.338-2.6667-3v-3c0-1.662 1.3999-2.1448 2.6667-3z"
       class="ColorScheme-Text"
       fill="#FF5555"
       id="path29" />
  </g>
</svg>
